<mxfile host="app.diagrams.net" agent="Mozilla/5.0 (X11; CrOS x86_64 14541.0.0) AppleWebKit/537.36 (KHTML, like Gecko) Chrome/127.0.0.0 Safari/537.36" version="24.7.7">
  <diagram name="Page-1" id="DTKz_72kt6VhtXFwKM1M">
    <mxGraphModel dx="880" dy="460" grid="1" gridSize="10" guides="1" tooltips="1" connect="1" arrows="1" fold="1" page="1" pageScale="1" pageWidth="827" pageHeight="1169" math="0" shadow="0">
      <root>
        <mxCell id="0" />
        <mxCell id="1" parent="0" />
        <mxCell id="QbbqXeNzqnn34Vh-U3ML-3" value="" style="edgeStyle=orthogonalEdgeStyle;rounded=0;orthogonalLoop=1;jettySize=auto;html=1;" edge="1" parent="1" source="QbbqXeNzqnn34Vh-U3ML-1" target="QbbqXeNzqnn34Vh-U3ML-2">
          <mxGeometry relative="1" as="geometry" />
        </mxCell>
        <mxCell id="QbbqXeNzqnn34Vh-U3ML-1" value="Login" style="rounded=0;whiteSpace=wrap;html=1;" vertex="1" parent="1">
          <mxGeometry x="10" y="120" width="120" height="60" as="geometry" />
        </mxCell>
        <mxCell id="QbbqXeNzqnn34Vh-U3ML-5" value="" style="edgeStyle=orthogonalEdgeStyle;rounded=0;orthogonalLoop=1;jettySize=auto;html=1;" edge="1" parent="1" source="QbbqXeNzqnn34Vh-U3ML-2" target="QbbqXeNzqnn34Vh-U3ML-4">
          <mxGeometry relative="1" as="geometry" />
        </mxCell>
        <mxCell id="QbbqXeNzqnn34Vh-U3ML-2" value="Isi kehadiran" style="rounded=0;whiteSpace=wrap;html=1;" vertex="1" parent="1">
          <mxGeometry x="200" y="120" width="120" height="60" as="geometry" />
        </mxCell>
        <mxCell id="QbbqXeNzqnn34Vh-U3ML-7" value="" style="edgeStyle=orthogonalEdgeStyle;rounded=0;orthogonalLoop=1;jettySize=auto;html=1;" edge="1" parent="1" source="QbbqXeNzqnn34Vh-U3ML-4" target="QbbqXeNzqnn34Vh-U3ML-6">
          <mxGeometry relative="1" as="geometry" />
        </mxCell>
        <mxCell id="QbbqXeNzqnn34Vh-U3ML-4" value="Riwayat" style="rounded=0;whiteSpace=wrap;html=1;" vertex="1" parent="1">
          <mxGeometry x="400" y="120" width="120" height="60" as="geometry" />
        </mxCell>
        <mxCell id="QbbqXeNzqnn34Vh-U3ML-9" value="" style="edgeStyle=orthogonalEdgeStyle;rounded=0;orthogonalLoop=1;jettySize=auto;html=1;" edge="1" parent="1" source="QbbqXeNzqnn34Vh-U3ML-6" target="QbbqXeNzqnn34Vh-U3ML-8">
          <mxGeometry relative="1" as="geometry" />
        </mxCell>
        <mxCell id="QbbqXeNzqnn34Vh-U3ML-6" value="Tambah siswa" style="rounded=0;whiteSpace=wrap;html=1;" vertex="1" parent="1">
          <mxGeometry x="600" y="120" width="120" height="60" as="geometry" />
        </mxCell>
        <mxCell id="QbbqXeNzqnn34Vh-U3ML-8" value="Data siswa" style="rounded=0;whiteSpace=wrap;html=1;" vertex="1" parent="1">
          <mxGeometry x="790" y="120" width="120" height="60" as="geometry" />
        </mxCell>
      </root>
    </mxGraphModel>
  </diagram>
</mxfile>
